<svg width="174" height="43" viewBox="0 0 174 43" fill="none" xmlns="http://www.w3.org/2000/svg">
<path d="M19.5385 20.2112C18.4378 20.8432 17.1026 21.3426 15.533 21.7095C13.9634 22.0764 12.3326 22.2599 10.6407 22.2599C8.35765 22.2599 6.41093 21.9847 4.80055 21.4343C3.21056 20.8839 2.00787 20.1195 1.19249 19.1411C0.397498 18.1626 0 17.0313 0 15.747C0 14.6259 0.305768 13.6372 0.917303 12.7811C1.52884 11.9249 2.3748 11.2624 3.45517 10.7936C2.61941 10.3655 1.9773 9.77437 1.52884 9.02014C1.10076 8.24553 0.886726 7.39958 0.886726 6.48227C0.886726 5.29997 1.25365 4.21959 1.98749 3.24114C2.74172 2.26268 3.88325 1.47788 5.41209 0.886726C6.94092 0.295575 8.82649 0 11.0688 0C12.4753 0 13.8615 0.132499 15.2272 0.397498C16.593 0.662497 17.7957 1.01923 18.8353 1.46769L17.1841 5.99305C15.2884 5.15728 13.3315 4.7394 11.3134 4.7394C9.8661 4.7394 8.78572 4.93305 8.07226 5.32036C7.35881 5.68728 7.00208 6.20708 7.00208 6.87977C7.00208 8.10284 7.8888 8.71438 9.66226 8.71438H15.7165V13.3315H9.26476C8.22515 13.3315 7.44035 13.5047 6.91035 13.8513C6.38035 14.1774 6.11535 14.6667 6.11535 15.319C6.11535 16.012 6.50266 16.5522 7.27727 16.9395C8.05188 17.3268 9.25457 17.5205 10.8853 17.5205C12.0472 17.5205 13.2397 17.3676 14.4628 17.0618C15.7063 16.7357 16.7866 16.2974 17.7039 15.747L19.5385 20.2112Z" fill="black"/>
<path d="M35.1224 13.148C37.0182 13.7799 37.9661 15.0845 37.9661 17.0618C37.9661 18.5499 37.3851 19.722 36.2232 20.5782C35.0613 21.4139 33.349 21.8318 31.0863 21.8318H21.7604V5.2592H30.6582C32.819 5.2592 34.4905 5.63632 35.6728 6.39054C36.8755 7.14477 37.4768 8.20476 37.4768 9.57053C37.4768 10.3655 37.273 11.0688 36.8653 11.6803C36.4576 12.2919 35.8767 12.7811 35.1224 13.148ZM26.9584 11.9249H30.1384C31.4838 11.9249 32.1565 11.4255 32.1565 10.4267C32.1565 9.4686 31.4838 8.98957 30.1384 8.98957H26.9584V11.9249ZM30.5665 18.0709C31.973 18.0709 32.6763 17.5613 32.6763 16.542C32.6763 15.5228 31.9934 15.0132 30.6276 15.0132H26.9584V18.0709H30.5665Z" fill="black"/>
<path d="M48.6672 15.9305H46.7103V21.8318H40.9007V5.2592H46.7103V11.3746H48.7895L52.8562 5.2592H59.0022L53.4372 13.2092L59.3691 21.8318H52.5199L48.6672 15.9305Z" fill="black"/>
<path d="M78.1735 5.2592V21.8318H72.364V9.87629H68.1749L68.0526 12.4142C67.9711 14.5749 67.7571 16.3586 67.4105 17.7651C67.064 19.1716 66.4932 20.2724 65.6982 21.0674C64.9032 21.842 63.8127 22.2293 62.4265 22.2293C61.7131 22.2293 60.7754 22.0968 59.6134 21.8318L59.8581 17.0924C60.225 17.1332 60.4696 17.1536 60.5919 17.1536C61.2238 17.1536 61.7029 16.9497 62.029 16.542C62.3552 16.1343 62.5794 15.5941 62.7017 14.9215C62.824 14.2284 62.9055 13.3111 62.9463 12.1695L63.1909 5.2592H78.1735Z" fill="black"/>
<path d="M99.1396 5.2592V21.8318H93.6052V20.0889C92.9937 20.7412 92.2599 21.2407 91.4037 21.5872C90.568 21.9337 89.671 22.107 88.713 22.107C86.5522 22.107 84.8297 21.4751 83.5455 20.2112C82.2817 18.9474 81.6497 17.0516 81.6497 14.524V5.2592H87.4593V13.5761C87.4593 15.9611 88.3868 17.1536 90.2418 17.1536C91.1591 17.1536 91.9031 16.8376 92.4739 16.2057C93.0447 15.5534 93.3301 14.5647 93.3301 13.2397V5.2592H99.1396Z" fill="black"/>
<path d="M120.682 5.2592V18.8047C120.682 21.8828 119.847 24.1862 118.175 25.7151C116.504 27.2643 114.098 28.0389 110.959 28.0389C109.328 28.0389 107.799 27.8554 106.372 27.4885C104.946 27.1216 103.733 26.5814 102.734 25.8679L104.844 21.8012C105.516 22.3516 106.362 22.7797 107.382 23.0855C108.421 23.4116 109.44 23.5747 110.439 23.5747C111.968 23.5747 113.089 23.2383 113.803 22.5656C114.516 21.893 114.873 20.8941 114.873 19.5691V19.0187C113.752 20.3234 112.111 20.9757 109.95 20.9757C108.482 20.9757 107.127 20.6495 105.883 19.9972C104.64 19.3245 103.651 18.3868 102.917 17.1841C102.183 15.9611 101.817 14.5545 101.817 12.9645C101.817 11.3949 102.183 10.0088 102.917 8.80611C103.651 7.58304 104.64 6.64535 105.883 5.99305C107.127 5.32036 108.482 4.98401 109.95 4.98401C112.315 4.98401 114.047 5.74843 115.148 7.27727V5.2592H120.682ZM111.326 16.3586C112.366 16.3586 113.222 16.0426 113.894 15.4107C114.587 14.7788 114.934 13.9634 114.934 12.9645C114.934 11.9657 114.598 11.1605 113.925 10.549C113.252 9.91706 112.386 9.6011 111.326 9.6011C110.266 9.6011 109.389 9.91706 108.696 10.549C108.024 11.1605 107.687 11.9657 107.687 12.9645C107.687 13.9634 108.034 14.7788 108.727 15.4107C109.42 16.0426 110.286 16.3586 111.326 16.3586Z" fill="black"/>
<path d="M9.42591 29.9305V39.9093H6.63185V32.1686H2.83992V39.9093H0.0601206V29.9305H9.42591Z" fill="black"/>
<path d="M15.5363 32.0546C16.3822 32.0546 17.1187 32.2161 17.7459 32.5392C18.3732 32.8624 18.8531 33.328 19.1857 33.9363C19.5278 34.535 19.6989 35.2383 19.6989 36.0461C19.6989 36.8444 19.5421 37.5476 19.2285 38.1559C18.9149 38.7546 18.4729 39.2203 17.9027 39.5529C17.3325 39.876 16.672 40.0376 15.9212 40.0376C15.0374 40.0376 14.3436 39.7667 13.84 39.225V42.6748H11.1314V36.0746C11.1314 35.2763 11.312 34.573 11.6731 33.9648C12.0343 33.3566 12.5475 32.8861 13.2127 32.5535C13.878 32.2209 14.6525 32.0546 15.5363 32.0546ZM15.408 37.885C15.8927 37.885 16.2824 37.7187 16.577 37.3861C16.8811 37.0439 17.0332 36.5973 17.0332 36.0461C17.0332 35.4949 16.8811 35.0529 16.577 34.7203C16.2824 34.3782 15.8927 34.2071 15.408 34.2071C14.9234 34.2071 14.5337 34.3782 14.2391 34.7203C13.9445 35.0529 13.7972 35.4949 13.7972 36.0461C13.7972 36.6068 13.9397 37.0535 14.2248 37.3861C14.5195 37.7187 14.9139 37.885 15.408 37.885Z" fill="black"/>
<path d="M24.8141 40.0376C23.9873 40.0376 23.2413 39.8665 22.576 39.5244C21.9108 39.1823 21.3881 38.7071 21.008 38.0989C20.6373 37.4906 20.452 36.8016 20.452 36.0318C20.452 35.2715 20.6373 34.5873 21.008 33.979C21.3881 33.3708 21.906 32.9004 22.5618 32.5678C23.227 32.2256 23.9778 32.0546 24.8141 32.0546C25.6505 32.0546 26.4012 32.2256 27.0665 32.5678C27.7317 32.9004 28.2497 33.3708 28.6203 33.979C28.991 34.5778 29.1763 35.262 29.1763 36.0318C29.1763 36.8016 28.991 37.4906 28.6203 38.0989C28.2497 38.7071 27.7317 39.1823 27.0665 39.5244C26.4012 39.8665 25.6505 40.0376 24.8141 40.0376ZM24.8141 37.885C25.2893 37.885 25.679 37.7235 25.9831 37.4003C26.2872 37.0677 26.4393 36.6115 26.4393 36.0318C26.4393 35.4616 26.2872 35.0149 25.9831 34.6918C25.679 34.3687 25.2893 34.2071 24.8141 34.2071C24.339 34.2071 23.9493 34.3687 23.6452 34.6918C23.3411 35.0149 23.189 35.4616 23.189 36.0318C23.189 36.6115 23.3411 37.0677 23.6452 37.4003C23.9493 37.7235 24.339 37.885 24.8141 37.885Z" fill="black"/>
<path d="M34.5379 37.9706C34.9085 37.9706 35.2269 37.9183 35.493 37.8137C35.7686 37.7092 36.0442 37.5381 36.3198 37.3005L37.7311 38.7831C36.9993 39.6194 35.9064 40.0376 34.4523 40.0376C33.5495 40.0376 32.7559 39.8665 32.0717 39.5244C31.3874 39.1823 30.8552 38.7071 30.4751 38.0989C30.1044 37.4906 29.9191 36.8016 29.9191 36.0318C29.9191 35.2715 30.1044 34.592 30.4751 33.9933C30.8457 33.3851 31.3542 32.9099 32.0004 32.5678C32.6562 32.2256 33.3879 32.0546 34.1957 32.0546C34.9465 32.0546 35.6308 32.2114 36.2485 32.525C36.8758 32.8291 37.3747 33.2805 37.7453 33.8793C38.116 34.4685 38.3013 35.1717 38.3013 35.9891L32.7845 37.0439C33.0791 37.6617 33.6635 37.9706 34.5379 37.9706ZM34.21 33.979C33.7443 33.979 33.3642 34.1264 33.0696 34.421C32.775 34.7061 32.6086 35.1195 32.5706 35.6612L35.7068 35.0482C35.6118 34.7251 35.4312 34.4685 35.1651 34.2784C34.899 34.0788 34.5806 33.979 34.21 33.979Z" fill="black"/>
<path d="M43.2137 37.158H42.3014V39.9093H39.5928V32.1829H42.3014V35.0339H43.2707L45.1667 32.1829H48.032L45.4376 35.8893L48.2031 39.9093H45.0099L43.2137 37.158Z" fill="black"/>
<path d="M59.1654 32.0546C60.1157 32.0546 60.8713 32.3397 61.432 32.9099C62.0022 33.4801 62.2873 34.3402 62.2873 35.4901V39.9093H59.5788V35.932C59.5788 35.3903 59.4742 34.9912 59.2652 34.7346C59.0656 34.478 58.7805 34.3497 58.4098 34.3497C58.0012 34.3497 57.6733 34.4922 57.4262 34.7773C57.1791 35.0625 57.0556 35.4949 57.0556 36.0746V39.9093H54.3471V35.932C54.3471 34.8771 53.9574 34.3497 53.1781 34.3497C52.76 34.3497 52.4273 34.4922 52.1802 34.7773C51.9331 35.0625 51.8096 35.4949 51.8096 36.0746V39.9093H49.1011V32.1829H51.6813V32.9954C51.9664 32.6818 52.3038 32.449 52.6934 32.2969C53.0926 32.1353 53.525 32.0546 53.9907 32.0546C54.5324 32.0546 55.0171 32.1544 55.4447 32.3539C55.8724 32.5535 56.2193 32.8576 56.4854 33.2663C56.7895 32.8766 57.1744 32.5773 57.6401 32.3682C58.1057 32.1591 58.6142 32.0546 59.1654 32.0546Z" fill="black"/>
<path d="M63.9272 32.1829H66.6215V35.0482H69.4013V32.1829H72.1098V39.9093H69.4013V37.2008H66.6215V39.9093H63.9272V32.1829Z" fill="black"/>
<path d="M77.6145 40.1374C75.0581 40.1374 73.7798 39.0397 73.7798 36.8444V32.1829H76.4741V34.6348C76.6737 34.5017 76.9398 34.3924 77.2724 34.3069C77.6145 34.2214 78.0042 34.1786 78.4413 34.1786C79.3917 34.1786 80.1377 34.421 80.6794 34.9056C81.2211 35.3808 81.492 36.0888 81.492 37.0297C81.492 38.0466 81.1403 38.8211 80.4371 39.3533C79.7433 39.876 78.8025 40.1374 77.6145 40.1374ZM82.1335 32.1829H84.842V39.9093H82.1335V32.1829ZM77.6145 38.2842C77.9852 38.2842 78.2655 38.1749 78.4556 37.9563C78.6457 37.7377 78.7407 37.4479 78.7407 37.0867C78.7407 36.7351 78.6457 36.4595 78.4556 36.2599C78.2655 36.0603 77.9899 35.9605 77.6288 35.9605C77.3722 35.9605 77.1441 36.0081 76.9445 36.1031C76.7449 36.1981 76.5881 36.3264 76.4741 36.488V37.0867C76.4741 37.4574 76.5691 37.752 76.7592 37.9706C76.9493 38.1796 77.2344 38.2842 77.6145 38.2842Z" fill="black"/>
<path d="M90.752 37.9706C91.1226 37.9706 91.441 37.9183 91.7071 37.8137C91.9827 37.7092 92.2583 37.5381 92.5339 37.3005L93.9452 38.7831C93.2134 39.6194 92.1205 40.0376 90.6664 40.0376C89.7636 40.0376 88.97 39.8665 88.2858 39.5244C87.6015 39.1823 87.0693 38.7071 86.6892 38.0989C86.3185 37.4906 86.1332 36.8016 86.1332 36.0318C86.1332 35.2715 86.3185 34.592 86.6892 33.9933C87.0598 33.3851 87.5683 32.9099 88.2145 32.5678C88.8702 32.2256 89.602 32.0546 90.4098 32.0546C91.1606 32.0546 91.8449 32.2114 92.4626 32.525C93.0898 32.8291 93.5888 33.2805 93.9594 33.8793C94.3301 34.4685 94.5154 35.1717 94.5154 35.9891L88.9985 37.0439C89.2932 37.6617 89.8776 37.9706 90.752 37.9706ZM90.4241 33.979C89.9584 33.979 89.5783 34.1264 89.2837 34.421C88.989 34.7061 88.8227 35.1195 88.7847 35.6612L91.9209 35.0482C91.8259 34.7251 91.6453 34.4685 91.3792 34.2784C91.1131 34.0788 90.7947 33.979 90.4241 33.979Z" fill="black"/>
<path d="M103.833 40.0376C102.978 40.0376 102.213 39.8665 101.538 39.5244C100.863 39.1823 100.336 38.7071 99.9555 38.0989C99.5848 37.4906 99.3995 36.8016 99.3995 36.0318C99.3995 35.262 99.5848 34.5778 99.9555 33.979C100.336 33.3708 100.863 32.9004 101.538 32.5678C102.213 32.2256 102.978 32.0546 103.833 32.0546C104.707 32.0546 105.463 32.2446 106.1 32.6248C106.736 32.9954 107.188 33.5134 107.454 34.1786L105.358 35.2478C105.007 34.554 104.493 34.2071 103.819 34.2071C103.334 34.2071 102.93 34.3687 102.607 34.6918C102.293 35.0149 102.137 35.4616 102.137 36.0318C102.137 36.6115 102.293 37.0677 102.607 37.4003C102.93 37.7235 103.334 37.885 103.819 37.885C104.493 37.885 105.007 37.5381 105.358 36.8444L107.454 37.9135C107.188 38.5788 106.736 39.1015 106.1 39.4816C105.463 39.8523 104.707 40.0376 103.833 40.0376Z" fill="black"/>
<path d="M116.541 32.1829V39.9093H113.961V39.0967C113.676 39.4008 113.334 39.6337 112.935 39.7952C112.545 39.9568 112.127 40.0376 111.68 40.0376C110.673 40.0376 109.87 39.743 109.271 39.1537C108.682 38.5645 108.387 37.6807 108.387 36.5022V32.1829H111.096V36.0603C111.096 37.1722 111.528 37.7282 112.393 37.7282C112.821 37.7282 113.167 37.5809 113.433 37.2863C113.7 36.9822 113.833 36.5213 113.833 35.9035V32.1829H116.541Z" fill="black"/>
<path d="M122.237 40.0376C121.382 40.0376 120.616 39.8665 119.942 39.5244C119.267 39.1823 118.74 38.7071 118.359 38.0989C117.989 37.4906 117.803 36.8016 117.803 36.0318C117.803 35.262 117.989 34.5778 118.359 33.979C118.74 33.3708 119.267 32.9004 119.942 32.5678C120.616 32.2256 121.382 32.0546 122.237 32.0546C123.111 32.0546 123.867 32.2446 124.503 32.6248C125.14 32.9954 125.592 33.5134 125.858 34.1786L123.762 35.2478C123.411 34.554 122.897 34.2071 122.223 34.2071C121.738 34.2071 121.334 34.3687 121.011 34.6918C120.697 35.0149 120.54 35.4616 120.54 36.0318C120.54 36.6115 120.697 37.0677 121.011 37.4003C121.334 37.7235 121.738 37.885 122.223 37.885C122.897 37.885 123.411 37.5381 123.762 36.8444L125.858 37.9135C125.592 38.5788 125.14 39.1015 124.503 39.4816C123.867 39.8523 123.111 40.0376 122.237 40.0376Z" fill="black"/>
<path d="M137.055 32.0546C138.005 32.0546 138.761 32.3397 139.321 32.9099C139.892 33.4801 140.177 34.3402 140.177 35.4901V39.9093H137.468V35.932C137.468 35.3903 137.364 34.9912 137.155 34.7346C136.955 34.478 136.67 34.3497 136.299 34.3497C135.891 34.3497 135.563 34.4922 135.316 34.7773C135.069 35.0625 134.945 35.4949 134.945 36.0746V39.9093H132.237V35.932C132.237 34.8771 131.847 34.3497 131.068 34.3497C130.649 34.3497 130.317 34.4922 130.07 34.7773C129.823 35.0625 129.699 35.4949 129.699 36.0746V39.9093H126.991V32.1829H129.571V32.9954C129.856 32.6818 130.193 32.449 130.583 32.2969C130.982 32.1353 131.414 32.0546 131.88 32.0546C132.422 32.0546 132.907 32.1544 133.334 32.3539C133.762 32.5535 134.109 32.8576 134.375 33.2663C134.679 32.8766 135.064 32.5773 135.53 32.3682C135.995 32.1591 136.504 32.0546 137.055 32.0546Z" fill="black"/>
<path d="M145.908 37.9706C146.279 37.9706 146.597 37.9183 146.863 37.8137C147.139 37.7092 147.414 37.5381 147.69 37.3005L149.101 38.7831C148.369 39.6194 147.277 40.0376 145.822 40.0376C144.92 40.0376 144.126 39.8665 143.442 39.5244C142.758 39.1823 142.225 38.7071 141.845 38.0989C141.475 37.4906 141.289 36.8016 141.289 36.0318C141.289 35.2715 141.475 34.592 141.845 33.9933C142.216 33.3851 142.724 32.9099 143.371 32.5678C144.026 32.2256 144.758 32.0546 145.566 32.0546C146.317 32.0546 147.001 32.2114 147.619 32.525C148.246 32.8291 148.745 33.2805 149.115 33.8793C149.486 34.4685 149.671 35.1717 149.671 35.9891L144.155 37.0439C144.449 37.6617 145.034 37.9706 145.908 37.9706ZM145.58 33.979C145.114 33.979 144.734 34.1264 144.44 34.421C144.145 34.7061 143.979 35.1195 143.941 35.6612L147.077 35.0482C146.982 34.7251 146.801 34.4685 146.535 34.2784C146.269 34.0788 145.951 33.979 145.58 33.979Z" fill="black"/>
<path d="M158.461 39.9093V35.8465L156.48 39.225H155.325L153.401 35.7895V39.9093H150.963V32.1829H153.814L155.967 36.2171L158.333 32.1829H160.885L160.899 39.9093H158.461Z" fill="black"/>
<path d="M166.404 40.1374C163.848 40.1374 162.57 39.0397 162.57 36.8444V32.1829H165.264V34.6348C165.464 34.5017 165.73 34.3924 166.062 34.3069C166.404 34.2214 166.794 34.1786 167.231 34.1786C168.182 34.1786 168.928 34.421 169.469 34.9056C170.011 35.3808 170.282 36.0888 170.282 37.0297C170.282 38.0466 169.93 38.8211 169.227 39.3533C168.533 39.876 167.592 40.1374 166.404 40.1374ZM170.923 32.1829H173.632V39.9093H170.923V32.1829ZM166.404 38.2842C166.775 38.2842 167.055 38.1749 167.245 37.9563C167.436 37.7377 167.531 37.4479 167.531 37.0867C167.531 36.7351 167.436 36.4595 167.245 36.2599C167.055 36.0603 166.78 35.9605 166.419 35.9605C166.162 35.9605 165.934 36.0081 165.734 36.1031C165.535 36.1981 165.378 36.3264 165.264 36.488V37.0867C165.264 37.4574 165.359 37.752 165.549 37.9706C165.739 38.1796 166.024 38.2842 166.404 38.2842Z" fill="black"/>
</svg>
