<svg width="39" height="72" viewBox="0 0 39 72" fill="none" xmlns="http://www.w3.org/2000/svg">
<path d="M8.62554 42.7144L16.6313 24.2754H19.3171V29.492L13.6356 42.7144H17.8709V40.3385C17.8709 39.76 18.835 39.7187 19.3171 39.7704V47.053C17.9948 47.053 17.802 46.6054 17.8709 46.3816V44.3156H12.8608L0.464849 71.9999H0L3.15065 62.4447C3.15065 62.4447 0.36155 61.36 1.29125 59.0358C2.22095 56.7115 7.79914 44.3156 7.79914 44.3156H1.29125V42.7144H8.62554Z" fill="#FF9900"/>
<path d="M29.4921 42.7144L21.4864 24.2754H18.8006V29.492L24.4821 42.7144H20.2468V40.3385C20.2468 39.76 19.2826 39.7187 18.8006 39.7704V47.053C20.1228 47.053 20.3156 46.6054 20.2468 46.3816V44.3156H25.2568L37.6528 71.9999H38.1176L34.967 62.4447C34.967 62.4447 37.7561 61.36 36.8264 59.0358C35.8967 56.7115 30.3185 44.3156 30.3185 44.3156H36.8264V42.7144H29.4921Z" fill="#FF9900"/>
<path fill-rule="evenodd" clip-rule="evenodd" d="M19.1107 21.5897C22.1344 21.5897 24.5856 19.1385 24.5856 16.1148C24.5856 13.0911 22.1344 10.6399 19.1107 10.6399C16.087 10.6399 13.6358 13.0911 13.6358 16.1148C13.6358 19.1385 16.087 21.5897 19.1107 21.5897ZM19.1107 24.5854C23.7889 24.5854 27.5813 20.793 27.5813 16.1148C27.5813 11.4366 23.7889 7.64419 19.1107 7.64419C14.4325 7.64419 10.6401 11.4366 10.6401 16.1148C10.6401 20.793 14.4325 24.5854 19.1107 24.5854Z" fill="black"/>
<path d="M17.5612 0H20.6602V8.16069H17.5612V0Z" fill="black"/>
</svg>
